<svg width="1200" height="630" viewBox="0 0 1200 630" fill="none" xmlns="http://www.w3.org/2000/svg">
  <defs>
    <linearGradient id="bg" x1="72" y1="44" x2="1124" y2="602" gradientUnits="userSpaceOnUse">
      <stop stop-color="#0D0D0D" />
      <stop offset="1" stop-color="#060606" />
    </linearGradient>
    <radialGradient id="glow" cx="0" cy="0" r="1" gradientUnits="userSpaceOnUse" gradientTransform="translate(264 110) rotate(34.8) scale(424.771 280.2)">
      <stop stop-color="#D8FF5A" stop-opacity="0.24" />
      <stop offset="1" stop-color="#D8FF5A" stop-opacity="0" />
    </radialGradient>
    <linearGradient id="panelGlow" x1="82" y1="88" x2="1118" y2="556" gradientUnits="userSpaceOnUse">
      <stop stop-color="#121212" />
      <stop offset="1" stop-color="#0B0B0B" />
    </linearGradient>
  </defs>

  <rect width="1200" height="630" fill="url(#bg)" />
  <rect width="1200" height="630" fill="url(#glow)" />

  <g opacity="0.24">
    <path d="M0 70H1200" stroke="#1E1E1E" />
    <path d="M0 140H1200" stroke="#1E1E1E" />
    <path d="M0 210H1200" stroke="#1E1E1E" />
    <path d="M0 280H1200" stroke="#1E1E1E" />
    <path d="M0 350H1200" stroke="#1E1E1E" />
    <path d="M0 420H1200" stroke="#1E1E1E" />
    <path d="M0 490H1200" stroke="#1E1E1E" />
    <path d="M0 560H1200" stroke="#1E1E1E" />
    <path d="M120 0V630" stroke="#1E1E1E" />
    <path d="M240 0V630" stroke="#1E1E1E" />
    <path d="M360 0V630" stroke="#1E1E1E" />
    <path d="M480 0V630" stroke="#1E1E1E" />
    <path d="M600 0V630" stroke="#1E1E1E" />
    <path d="M720 0V630" stroke="#1E1E1E" />
    <path d="M840 0V630" stroke="#1E1E1E" />
    <path d="M960 0V630" stroke="#1E1E1E" />
    <path d="M1080 0V630" stroke="#1E1E1E" />
  </g>

  <rect width="1200" height="74" fill="#0A0A0A" fill-opacity="0.95" />
  <path d="M0 74H1200" stroke="#232323" />
  <text x="72" y="44" fill="#D8D8D8" font-size="19" font-family="'Space Mono', monospace" letter-spacing="0.16em">[SET SIGNAL ARCHIVE]</text>
  <text x="846" y="44" fill="#CFCFCF" font-size="16" font-family="'Space Mono', monospace" letter-spacing="0.12em">OVERVIEW</text>
  <text x="986" y="44" fill="#CFCFCF" font-size="16" font-family="'Space Mono', monospace" letter-spacing="0.12em">TIMELINE</text>

  <rect x="72" y="106" width="1056" height="446" fill="url(#panelGlow)" stroke="#2A2A2A" stroke-width="2" />
  <text x="104" y="132" fill="#D8D8D8" font-size="15" font-family="'Space Mono', monospace" letter-spacing="0.12em">SET INTELLIGENCE DECK</text>

  <rect x="104" y="156" width="332" height="332" fill="#0E0E0E" stroke="#2C2C2C" stroke-width="2" />
  <path d="M104 214H436" stroke="#232323" stroke-width="2" />
  <text x="132" y="200" fill="#D8D8D8" font-size="16" font-family="'Space Mono', monospace" letter-spacing="0.11em">[SSA]</text>
  <path d="M174 268H366" stroke="#2A2A2A" stroke-width="4" />
  <path d="M174 396H366" stroke="#2A2A2A" stroke-width="4" />
  <text x="160" y="358" fill="#FFFFFF" font-size="136" font-weight="800" font-family="Manrope, Arial, sans-serif" letter-spacing="-0.08em">SS</text>
  <rect x="174" y="378" width="192" height="16" fill="#D8FF5A" />
  <rect x="174" y="420" width="102" height="10" fill="#6FFFA4" />
  <rect x="284" y="420" width="44" height="10" fill="#FFD166" />
  <rect x="336" y="420" width="30" height="10" fill="#7B7B7B" />

  <g>
    <text x="490" y="254" fill="#FFFFFF" font-size="116" font-weight="800" font-family="Manrope, Arial, sans-serif" letter-spacing="-0.07em">SET</text>
    <text x="490" y="344" fill="#FFFFFF" font-size="116" font-weight="800" font-family="Manrope, Arial, sans-serif" letter-spacing="-0.07em">SIGNAL</text>
    <text x="494" y="384" fill="#ABABAB" font-size="22" font-family="Manrope, Arial, sans-serif">DJ set explorer, track atlas, and archive signal view.</text>

    <rect x="492" y="410" width="162" height="34" fill="#171717" stroke="#2C2C2C" />
    <rect x="668" y="410" width="124" height="34" fill="#171717" stroke="#2C2C2C" />
    <rect x="806" y="410" width="192" height="34" fill="#0F1210" stroke="#D8FF5A" />
    <text x="510" y="432" fill="#D8D8D8" font-size="14" font-family="'Space Mono', monospace" letter-spacing="0.08em">SET EXPLORER</text>
    <text x="686" y="432" fill="#D8D8D8" font-size="14" font-family="'Space Mono', monospace" letter-spacing="0.08em">TIMELINE</text>
    <text x="824" y="432" fill="#D8FF5A" font-size="14" font-family="'Space Mono', monospace" letter-spacing="0.08em">TRACK ATLAS</text>
  </g>

  <rect x="492" y="156" width="560" height="64" fill="#0F0F0F" stroke="#2C2C2C" stroke-width="2" />
  <text x="516" y="182" fill="#D8D8D8" font-size="14" font-family="'Space Mono', monospace" letter-spacing="0.11em">CONFIDENCE SIGNAL</text>
  <g transform="translate(516 194)">
    <rect width="94" height="12" rx="2" fill="#6FFFA4" />
    <rect x="100" width="58" height="12" rx="2" fill="#D8FF5A" />
    <rect x="164" width="36" height="12" rx="2" fill="#FFD166" />
    <rect x="206" width="28" height="12" rx="2" fill="#7B7B7B" />
    <rect x="240" width="110" height="12" rx="2" fill="#D8FF5A" />
    <rect x="356" width="48" height="12" rx="2" fill="#FFA55A" />
    <rect x="410" width="78" height="12" rx="2" fill="#6FFFA4" />
  </g>

  <rect x="104" y="510" width="948" height="18" fill="#0F0F0F" stroke="#2C2C2C" stroke-width="2" />
  <g transform="translate(120 513)">
    <rect width="84" height="12" rx="2" fill="#6FFFA4" />
    <rect x="90" width="38" height="12" rx="2" fill="#D8FF5A" />
    <rect x="134" width="24" height="12" rx="2" fill="#FFD166" />
    <rect x="164" width="46" height="12" rx="2" fill="#FFA55A" />
    <rect x="216" width="74" height="12" rx="2" fill="#6FFFA4" />
    <rect x="296" width="22" height="12" rx="2" fill="#7B7B7B" />
    <rect x="324" width="88" height="12" rx="2" fill="#D8FF5A" />
    <rect x="418" width="30" height="12" rx="2" fill="#FFD166" />
    <rect x="454" width="54" height="12" rx="2" fill="#6FFFA4" />
    <rect x="514" width="26" height="12" rx="2" fill="#7B7B7B" />
    <rect x="546" width="98" height="12" rx="2" fill="#D8FF5A" />
    <rect x="650" width="62" height="12" rx="2" fill="#6FFFA4" />
    <rect x="718" width="42" height="12" rx="2" fill="#FFA55A" />
    <rect x="766" width="98" height="12" rx="2" fill="#D8FF5A" />
  </g>
</svg>
